<svg width="28" height="28" viewBox="0 0 28 28" fill="none" xmlns="http://www.w3.org/2000/svg">
<path d="M14.0003 0.559998C6.5775 0.559998 0.560303 6.5772 0.560303 14C0.560303 21.4228 6.5775 27.44 14.0003 27.44C21.4231 27.44 27.4403 21.4228 27.4403 14C27.4403 6.5772 21.4231 0.559998 14.0003 0.559998V0.559998ZM13.2261 19.7694C12.3819 20.1796 11.4733 20.223 11.1219 20.223C11.0547 20.223 11.0169 20.223 11.0169 20.223C11.0169 20.223 10.9847 20.223 10.9413 20.223C10.3925 20.223 7.6611 20.097 7.6611 17.6092C7.6611 15.1648 10.6361 14.973 11.5475 14.973H11.5713C11.0449 14.2702 11.1541 13.5618 11.1541 13.5618C11.1079 13.5646 11.0407 13.5674 10.9581 13.5674C10.6151 13.5674 9.9529 13.5128 9.3845 13.146C8.6873 12.698 8.3345 11.935 8.3345 10.8794C8.3345 7.896 11.5923 7.7756 11.6245 7.7728H14.8781V7.8442C14.8781 8.2082 14.2243 8.2796 13.7791 8.3398C13.6279 8.3622 13.3241 8.3916 13.2387 8.435C14.0633 8.876 14.1963 9.5676 14.1963 10.598C14.1963 11.7712 13.7371 12.3914 13.2499 12.8268C12.9475 13.097 12.7109 13.3084 12.7109 13.5926C12.7109 13.8712 13.0357 14.1554 13.4137 14.4872C14.0311 15.0318 14.8781 15.7724 14.8781 17.0226C14.8781 18.3148 14.3223 19.2388 13.2261 19.7694V19.7694ZM20.3003 14H18.2003V16.1H16.8003V14H14.7003V12.6H16.8003V10.5H18.2003V12.6H20.3003V14ZM11.5125 15.61C11.4397 15.61 11.3669 15.6128 11.2927 15.6184C10.6711 15.6646 10.0971 15.897 9.6827 16.275C9.2711 16.6474 9.0611 17.1178 9.0905 17.5924C9.1535 18.5878 10.2217 19.1702 11.5195 19.0778C12.7963 18.9854 13.6475 18.249 13.5859 17.2536C13.5271 16.3184 12.7137 15.61 11.5125 15.61V15.61ZM12.7361 10.199C12.3973 9.009 11.8513 8.6562 11.0029 8.6562C10.9119 8.6562 10.8195 8.6702 10.7313 8.694C10.3631 8.799 10.0705 9.1056 9.9081 9.562C9.7415 10.024 9.7317 10.5056 9.8745 11.0544C10.1335 12.0358 10.8307 12.747 11.5335 12.747C11.6259 12.747 11.7183 12.7358 11.8051 12.7092C12.5737 12.4936 13.0553 11.3204 12.7361 10.199V10.199Z" fill="#6C6C6C"/>
</svg>
