<svg width="28" height="28" viewBox="0 0 28 28" fill="none" xmlns="http://www.w3.org/2000/svg">
<path d="M14.0001 0.559998C6.57726 0.559998 0.560059 6.5772 0.560059 14C0.560059 21.4228 6.57726 27.44 14.0001 27.44C21.4229 27.44 27.4401 21.4228 27.4401 14C27.4401 6.5772 21.4229 0.559998 14.0001 0.559998V0.559998ZM14.9199 17.185C14.0575 17.1192 13.6963 16.6922 13.0215 16.2834C12.6505 18.2308 12.1969 20.0984 10.8529 21.0742C10.4371 18.1286 11.4605 15.9194 11.9365 13.5716C11.1259 12.2066 12.0331 9.4612 13.7439 10.136C15.8481 10.9704 11.9211 15.211 14.5573 15.7416C17.3097 16.2932 18.4339 10.9648 16.7273 9.2344C14.2605 6.7326 9.54946 9.177 10.1291 12.7582C10.2691 13.6332 11.1749 13.8992 10.4903 15.1074C8.91246 14.7574 8.44066 13.5128 8.50226 11.8538C8.59886 9.1378 10.9425 7.2352 13.2917 6.9734C16.2639 6.643 19.0527 8.064 19.4391 10.8612C19.8717 14.0168 18.0965 17.4314 14.9199 17.185Z" fill="#6C6C6C"/>
</svg>
