<svg width="42" height="42" viewBox="0 0 42 42" fill="none" xmlns="http://www.w3.org/2000/svg">
<path d="M21 42C27.9883 42 34.181 38.584 37.9983 33.3317L42 37.3333V25.6667H30.3333L34.643 29.9763C31.724 34.4073 26.7027 37.3333 21 37.3333C11.9793 37.3333 4.66667 30.0207 4.66667 21H0C0 32.5967 9.40333 42 21 42ZM0 16.3333V4.66667L4.00167 8.66833C7.819 3.416 14.0093 0 21 0C32.5967 0 42 9.401 42 21H37.3333C37.3333 11.9793 30.0207 4.66667 21 4.66667C15.2973 4.66667 10.276 7.59267 7.357 12.0237L11.6667 16.3333H0Z" fill="black"/>
</svg>
