<svg width="22" height="22" viewBox="0 0 22 22" fill="none" xmlns="http://www.w3.org/2000/svg">
<g clip-path="url(#clip0)">
<path d="M17.7106 20.8393C17.5388 20.8393 17.3681 20.7885 17.2217 20.6892L11.69 16.9369L8.72313 19.0717C8.49044 19.2391 8.19053 19.2812 7.92034 19.1846C7.65049 19.0878 7.44556 18.8643 7.37241 18.5871L5.88269 12.9415L0.559794 10.9062C0.224696 10.778 0.0024586 10.4574 2.02623e-05 10.0986C-0.00241808 9.73986 0.215407 9.41626 0.548879 9.28354L20.7885 1.23005C20.8804 1.19103 20.9775 1.16851 21.0755 1.16247C21.1106 1.16038 21.1458 1.16038 21.1807 1.16235C21.3837 1.17443 21.5831 1.2571 21.7387 1.40967C21.7548 1.42546 21.7701 1.4416 21.7846 1.45844C21.9135 1.60567 21.9843 1.78518 21.9977 1.96805C22.0009 2.01403 22.0007 2.06059 21.9967 2.10715C21.9939 2.14036 21.9891 2.17345 21.9824 2.20631L18.566 20.1315C18.5111 20.4195 18.3151 20.6605 18.0443 20.7728C17.9369 20.8174 17.8235 20.8393 17.7106 20.8393ZM12.1757 15.1618L17.1031 18.5041L19.7614 4.5563L10.1605 13.7948L12.1525 15.1461C12.1605 15.1511 12.1682 15.1565 12.1757 15.1618ZM8.07384 14.4186L8.73358 16.9185L10.155 15.8956L8.29375 14.633C8.20725 14.5745 8.13317 14.5016 8.07384 14.4186ZM3.26693 10.0765L6.92189 11.4739C7.18372 11.574 7.38135 11.7941 7.45287 12.0651L7.91639 13.8218C7.93764 13.6191 8.02948 13.4285 8.17868 13.2849L17.327 4.48198L3.26693 10.0765Z" fill="#6C6C6C"/>
</g>
<defs>
<clipPath id="clip0">
<rect width="22" height="22" fill="white"/>
</clipPath>
</defs>
</svg>
