<svg width="28" height="28" viewBox="0 0 28 28" fill="none" xmlns="http://www.w3.org/2000/svg">
<path d="M14.0001 0.559998C6.57726 0.559998 0.560059 6.5772 0.560059 14C0.560059 21.4228 6.57726 27.44 14.0001 27.44C21.4229 27.44 27.4401 21.4228 27.4401 14C27.4401 6.5772 21.4229 0.559998 14.0001 0.559998V0.559998ZM19.4671 11.5696C19.4727 11.6844 19.4741 11.7992 19.4741 11.9112C19.4741 15.4112 16.8127 19.4446 11.9435 19.4446C10.4483 19.4446 9.05666 19.0078 7.88626 18.2546C8.09206 18.2798 8.30346 18.2896 8.51766 18.2896C9.75806 18.2896 10.8991 17.8682 11.8049 17.157C10.6471 17.1346 9.66986 16.3702 9.33246 15.3202C9.49346 15.3496 9.65866 15.3664 9.82946 15.3664C10.0703 15.3664 10.3055 15.3342 10.5267 15.274C9.31566 15.0304 8.40286 13.9608 8.40286 12.6784V12.6462C8.75986 12.8436 9.16866 12.964 9.60266 12.978C8.89146 12.502 8.42526 11.6928 8.42526 10.773C8.42526 10.2886 8.55546 9.8322 8.78366 9.4416C10.0899 11.0432 12.0387 12.096 14.2395 12.2094C14.1933 12.0148 14.1709 11.8132 14.1709 11.6046C14.1709 10.1444 15.3553 8.9572 16.8183 8.9572C17.5785 8.9572 18.2673 9.2792 18.7503 9.7944C19.3537 9.674 19.9193 9.4556 20.4303 9.1518C20.2329 9.7692 19.8143 10.2886 19.2669 10.6176C19.8031 10.5518 20.3127 10.4104 20.7873 10.199C20.4331 10.7296 19.9837 11.1972 19.4671 11.5696V11.5696Z" fill="#6C6C6C"/>
</svg>
